<svg width="171" height="40" viewBox="0 0 171 40" fill="none" xmlns="http://www.w3.org/2000/svg">
<path d="M40 20C40 25.3043 37.8929 30.3914 34.1421 34.1421C30.3914 37.8929 25.3043 40 20 40C14.6957 40 9.60859 37.8929 5.85786 34.1421C2.10714 30.3914 0 25.3043 0 20H0C0 14.6957 2.10714 9.60859 5.85786 5.85786C9.60859 2.10714 14.6957 0 20 0V0C25.3043 0 30.3914 2.10714 34.1421 5.85786C37.8929 9.60859 40 14.6957 40 20Z" fill="#2D6FF7"/>
<path d="M17.5 10.3799V21.8799C17.4462 23.004 16.9618 24.0643 16.1473 24.8409C15.3327 25.6175 14.2504 26.0507 13.125 26.0507C11.9996 26.0507 10.9173 25.6175 10.1027 24.8409C9.28817 24.0643 8.80376 23.004 8.75 21.8799V19.8099C8.78211 19.4009 8.96723 19.0191 9.26844 18.7406C9.56965 18.4621 9.96478 18.3075 10.375 18.3075C10.7852 18.3075 11.1804 18.4621 11.4816 18.7406C11.7828 19.0191 11.9679 19.4009 12 19.8099V21.8799C12.0264 22.16 12.1564 22.4201 12.3644 22.6094C12.5725 22.7988 12.8437 22.9037 13.125 22.9037C13.4063 22.9037 13.6775 22.7988 13.8856 22.6094C14.0936 22.4201 14.2236 22.16 14.25 21.8799V10.3799C14.2324 10.1558 14.2614 9.93044 14.335 9.71805C14.4087 9.50567 14.5255 9.31082 14.6782 9.14575C14.8308 8.98069 15.0159 8.84898 15.2219 8.7589C15.4278 8.66882 15.6502 8.62231 15.875 8.62231C16.0998 8.62231 16.3222 8.66882 16.5281 8.7589C16.7341 8.84898 16.9192 8.98069 17.0718 9.14575C17.2245 9.31082 17.3413 9.50567 17.415 9.71805C17.4886 9.93044 17.5176 10.1558 17.5 10.3799V10.3799ZM26.88 13.7499C25.7201 13.7499 24.6075 14.21 23.7864 15.0292C22.9653 15.8485 22.5026 16.96 22.5 18.1199V29.6199C22.4824 29.844 22.5114 30.0693 22.585 30.2817C22.6587 30.4941 22.7755 30.689 22.9282 30.854C23.0808 31.0191 23.2659 31.1508 23.4719 31.2409C23.6778 31.331 23.9002 31.3775 24.125 31.3775C24.3498 31.3775 24.5722 31.331 24.7781 31.2409C24.9841 31.1508 25.1692 31.0191 25.3218 30.854C25.4745 30.689 25.5913 30.4941 25.665 30.2817C25.7386 30.0693 25.7676 29.844 25.75 29.6199V18.1199C25.7764 17.8398 25.9064 17.5797 26.1144 17.3903C26.3225 17.201 26.5937 17.0961 26.875 17.0961C27.1563 17.0961 27.4275 17.201 27.6356 17.3903C27.8436 17.5797 27.9736 17.8398 28 18.1199V20.1899C28.0321 20.5988 28.2172 20.9807 28.5184 21.2592C28.8196 21.5376 29.2148 21.6923 29.625 21.6923C30.0352 21.6923 30.4304 21.5376 30.7316 21.2592C31.0328 20.9807 31.2179 20.5988 31.25 20.1899V18.1199C31.25 16.9609 30.7896 15.8494 29.9701 15.0298C29.1505 14.2103 28.039 13.7499 26.88 13.7499V13.7499Z" fill="white"/>
<path d="M57.2111 26.413C56.2304 26.479 55.2469 26.3381 54.3243 25.9993C53.4017 25.6605 52.5606 25.1315 51.8557 24.4466C50.5443 22.9054 49.8846 20.914 50.0166 18.8946C49.9975 17.8049 50.186 16.7215 50.5718 15.7022C50.9194 14.8128 51.4426 14.0024 52.1102 13.3195C52.7686 12.6716 53.5571 12.1709 54.4235 11.8505C55.3754 11.5213 56.3775 11.3608 57.3846 11.3763C57.9428 11.3716 58.5004 11.418 59.0502 11.5151C59.4915 11.5937 59.928 11.698 60.3572 11.8274C60.678 11.9233 60.9912 12.0432 61.2941 12.1859C61.5486 12.3132 61.7221 12.4173 61.8378 12.4867L60.9008 15.1007C60.4051 14.8501 59.886 14.6486 59.3509 14.4993C58.6939 14.3289 58.017 14.2472 57.3383 14.2564C56.8387 14.2575 56.3427 14.3395 55.8693 14.4993C55.3962 14.6707 54.966 14.9431 54.6086 15.2974C54.2113 15.7054 53.9075 16.1947 53.7179 16.7317C53.4661 17.4127 53.3407 18.1339 53.3478 18.8599C53.3462 19.4872 53.42 20.1125 53.5676 20.7222C53.6981 21.2626 53.9382 21.7705 54.2731 22.2143C54.6135 22.6457 55.0543 22.9872 55.557 23.209C56.1642 23.4638 56.8189 23.5861 57.4771 23.5676C57.8988 23.5725 58.3203 23.5454 58.7379 23.4866C59.0769 23.441 59.4129 23.3754 59.7442 23.29C60.0056 23.2226 60.2609 23.1336 60.5076 23.0239L61.1206 22.7579L62.0113 25.3604C61.4051 25.6987 60.755 25.9517 60.0796 26.1123C59.14 26.3331 58.1761 26.4342 57.2111 26.413V26.413Z" fill="white"/>
<path d="M67.3088 12.0356C67.3233 12.2856 67.2821 12.5357 67.1881 12.7677C67.094 12.9998 66.9496 13.208 66.7652 13.3774C66.4052 13.6964 65.9391 13.8696 65.4581 13.8632C64.9806 13.8701 64.5179 13.6966 64.1627 13.3774C63.9768 13.2086 63.8306 13.0007 63.7346 12.7688C63.6386 12.5368 63.5952 12.2864 63.6075 12.0356C63.5952 11.7849 63.6386 11.5345 63.7346 11.3025C63.8306 11.0705 63.9768 10.8627 64.1627 10.6939C64.5197 10.3788 64.9821 10.2096 65.4581 10.2197C65.9391 10.2132 66.4052 10.3864 66.7652 10.7055C66.948 10.8736 67.0916 11.0799 67.1855 11.3098C67.2795 11.5398 67.3216 11.7876 67.3088 12.0356V12.0356ZM67.0196 26.147H63.9198V15.2049H67.0196V26.147Z" fill="white"/>
<path d="M69.8304 12.533L72.9302 12.0356V15.2628H76.6663V17.8421H72.9302V21.6938C72.9057 22.2359 73.0254 22.7747 73.2772 23.2554C73.4367 23.466 73.6492 23.6305 73.8931 23.7321C74.1369 23.8338 74.4034 23.8688 74.6652 23.8337C75.0103 23.8306 75.3546 23.7996 75.6947 23.7412C76.0251 23.6838 76.3502 23.5987 76.6663 23.4867L77.0942 25.8926C76.6898 26.0618 76.2719 26.1973 75.845 26.2974C75.292 26.3977 74.7295 26.4365 74.1679 26.4131C73.4502 26.4364 72.735 26.3185 72.0627 26.0661C71.5272 25.8736 71.055 25.5375 70.6979 25.0945C70.3518 24.6619 70.1103 24.1552 69.9923 23.6139C69.8574 22.9751 69.7915 22.3236 69.7957 21.6707L69.8304 12.533Z" fill="white"/>
<path d="M82.7041 14.904C83.487 14.8817 84.2684 14.9872 85.0174 15.2164C85.573 15.3936 86.0771 15.7032 86.4864 16.1186C86.8574 16.5177 87.1236 17.0025 87.2614 17.5297C87.4194 18.1338 87.4971 18.756 87.4927 19.3804V25.8346C87.0416 25.9387 86.4286 26.0544 85.642 26.1816C84.6886 26.322 83.7256 26.3878 82.7619 26.3782C82.1171 26.386 81.4733 26.3239 80.8418 26.1932C80.3106 26.0836 79.8045 25.8757 79.3497 25.5801C78.9326 25.2868 78.6012 24.8875 78.3897 24.4235C78.1542 23.8923 78.0396 23.3155 78.0543 22.7347C78.0414 22.1661 78.177 21.604 78.4475 21.1038C78.6945 20.6703 79.0491 20.3078 79.477 20.0512C79.9327 19.773 80.4339 19.5772 80.9575 19.4729C81.5244 19.3556 82.102 19.2975 82.6809 19.2994C83.0393 19.28 83.3983 19.28 83.7566 19.2994C84.011 19.3227 84.2626 19.3692 84.5085 19.4382V19.2416C84.5211 19.0083 84.4855 18.7749 84.4039 18.556C84.3223 18.3371 84.1965 18.1373 84.0342 17.9692C83.5614 17.6015 82.9643 17.4315 82.3686 17.495C81.8464 17.4944 81.3247 17.5292 80.8071 17.5991C80.3542 17.6633 79.9087 17.7718 79.477 17.923L79.0837 15.4246L79.7546 15.2511C80.0322 15.1932 80.3213 15.1354 80.6452 15.0891L81.6515 14.9619C81.9869 14.9272 82.3339 14.904 82.7041 14.904ZM82.947 23.9839C83.2593 23.9839 83.5484 23.9839 83.826 23.9839C84.1036 23.9839 84.3234 23.9839 84.4853 23.9261V21.6127C84.3022 21.5713 84.1168 21.5404 83.9302 21.5202H83.2361C82.9627 21.502 82.6883 21.502 82.4149 21.5202C82.1826 21.5514 81.9564 21.6177 81.744 21.7168C81.5561 21.8076 81.3963 21.9475 81.2814 22.1217C81.1692 22.3103 81.1131 22.5269 81.1194 22.7463C81.0978 22.9427 81.1319 23.1413 81.2178 23.3192C81.3037 23.4972 81.438 23.6474 81.6052 23.7526C82.0258 23.9418 82.4874 24.0214 82.947 23.9839V23.9839Z" fill="white"/>
<path d="M90.1762 12.533L93.2761 12.0356V15.2628H97.0006V17.8421H93.2761V21.6938C93.2515 22.2359 93.3712 22.7747 93.6231 23.2554C93.779 23.4669 93.9893 23.6324 94.2316 23.7342C94.4739 23.836 94.7393 23.8704 94.9995 23.8337C95.3446 23.8311 95.6889 23.8001 96.029 23.7412C96.36 23.6867 96.6853 23.6015 97.0006 23.4867L97.4401 25.8926C97.035 26.0601 96.6173 26.1955 96.1909 26.2974C95.6356 26.4131 95.0693 26.4674 94.5021 26.4593C93.7845 26.4817 93.0695 26.3639 92.397 26.1123C91.877 25.9146 91.4183 25.5835 91.0668 25.1523C90.7209 24.7211 90.4829 24.2135 90.3728 23.6718C90.2323 23.0338 90.1663 22.3817 90.1762 21.7286V12.533Z" fill="white"/>
<path d="M109.469 15.2051C108.845 17.3102 108.193 19.2881 107.515 21.1388C106.832 22.9779 106.08 24.7707 105.282 26.5058C105.025 27.0565 104.731 27.5897 104.403 28.102C104.138 28.5063 103.815 28.8688 103.443 29.1777C103.105 29.463 102.711 29.6756 102.286 29.8023C101.794 29.9435 101.283 30.0098 100.771 29.9989C100.306 30.0061 99.841 29.9673 99.3833 29.8832C99.0409 29.8077 98.7046 29.7072 98.377 29.5825L98.9206 27.0957C99.1968 27.2031 99.4838 27.2806 99.7765 27.327C100.038 27.3512 100.301 27.3512 100.563 27.327C100.796 27.3438 101.029 27.3135 101.25 27.238C101.47 27.1624 101.673 27.0432 101.847 26.8875C102.178 26.5273 102.437 26.1072 102.61 25.6498C101.893 24.2618 101.188 22.7003 100.482 21.0231C99.7162 19.131 99.0483 17.2006 98.481 15.2398H101.766C101.905 15.7718 102.078 16.3965 102.263 16.9979C102.448 17.5994 102.645 18.2587 102.853 18.9064C103.061 19.5542 103.281 20.1788 103.489 20.7918C103.698 21.4048 103.917 21.9485 104.114 22.4574C104.288 21.96 104.484 21.4048 104.681 20.7918C104.877 20.1788 105.063 19.5542 105.248 18.9064C105.433 18.2587 105.618 17.6225 105.791 16.9979C105.965 16.3733 106.127 15.7718 106.265 15.2398L109.469 15.2051Z" fill="white"/>
<path d="M121.071 20.6297C121.076 21.4169 120.947 22.1992 120.689 22.9431C120.466 23.626 120.099 24.2532 119.613 24.7822C119.135 25.2841 118.556 25.6784 117.913 25.9389C117.208 26.2253 116.453 26.3669 115.692 26.3553C114.945 26.3958 114.198 26.2857 113.495 26.0314C112.852 25.771 112.273 25.3767 111.794 24.8747C111.284 24.3495 110.89 23.7229 110.638 23.0356C110.098 21.5128 110.098 19.8508 110.638 18.328C110.897 17.6509 111.29 17.0332 111.794 16.512C112.275 16.0132 112.854 15.6194 113.495 15.3553C114.176 15.0732 114.908 14.9315 115.646 14.9389C116.395 14.9294 117.139 15.071 117.832 15.3553C118.471 15.6166 119.047 16.0109 119.521 16.512C120.026 17.0324 120.42 17.6503 120.678 18.328C120.938 19.0675 121.071 19.8458 121.071 20.6297V20.6297ZM117.902 20.6297C117.948 19.8376 117.75 19.0503 117.335 18.3742C117.154 18.1087 116.908 17.8939 116.62 17.7501C116.333 17.6064 116.013 17.5385 115.692 17.553C115.372 17.5407 115.053 17.6095 114.766 17.7531C114.479 17.8966 114.233 18.1103 114.05 18.3742C113.639 19.0516 113.445 19.8388 113.495 20.6297C113.446 21.4419 113.648 22.2492 114.073 22.9431C114.251 23.2137 114.495 23.4337 114.783 23.5817C115.071 23.7297 115.392 23.8005 115.715 23.7875C116.039 23.8029 116.361 23.733 116.65 23.5848C116.938 23.4366 117.182 23.2153 117.358 22.9431C117.771 22.2454 117.96 21.4382 117.902 20.6297Z" fill="white"/>
<path d="M123.465 15.5753C124.136 15.3965 124.815 15.2536 125.501 15.1473C126.37 15.0153 127.248 14.9496 128.127 14.9507C128.913 14.933 129.696 15.0544 130.44 15.3092C131.011 15.5247 131.516 15.8832 131.909 16.3502C132.276 16.8117 132.537 17.349 132.672 17.9233C132.836 18.5931 132.914 19.2811 132.904 19.9706V26.1472H129.804V20.3639C129.862 19.636 129.726 18.9057 129.41 18.2472C129.239 18.0241 129.012 17.8493 128.752 17.7399C128.493 17.6304 128.21 17.59 127.93 17.6226C127.71 17.6226 127.467 17.6226 127.224 17.6226L126.553 17.7035V26.1472H123.454L123.465 15.5753Z" fill="white"/>
<path d="M140.098 26.4132C139.355 26.4254 138.615 26.3279 137.9 26.124C137.41 25.9465 136.973 25.6481 136.628 25.2565C136.308 24.9359 136.076 24.5372 135.957 24.0998C135.836 23.5844 135.778 23.0562 135.784 22.5267V10.4974L138.884 10V21.9253C138.881 22.1776 138.904 22.4295 138.953 22.6771C138.98 22.8793 139.06 23.0709 139.184 23.2323C139.321 23.3985 139.496 23.5294 139.693 23.614C139.982 23.7228 140.287 23.7852 140.596 23.7991L140.098 26.4132Z" fill="white"/>
<path d="M145.696 12.0357C145.708 12.2853 145.666 12.5347 145.572 12.7664C145.478 12.9981 145.335 13.2066 145.153 13.3774C144.793 13.6964 144.327 13.8696 143.846 13.8632C143.368 13.8725 142.904 13.6987 142.55 13.3774C142.364 13.2086 142.218 13.0008 142.122 12.7688C142.026 12.5368 141.983 12.2864 141.995 12.0357C141.983 11.7849 142.026 11.5345 142.122 11.3025C142.218 11.0706 142.364 10.8627 142.55 10.6939C142.904 10.3727 143.368 10.1989 143.846 10.2081C144.327 10.2017 144.793 10.3749 145.153 10.6939C145.335 10.8648 145.478 11.0732 145.572 11.3049C145.666 11.5366 145.708 11.786 145.696 12.0357V12.0357ZM145.407 26.147H142.307V15.2049H145.407V26.147Z" fill="white"/>
<path d="M148.322 15.5752C148.996 15.3953 149.68 15.2525 150.369 15.1472C151.234 15.0154 152.108 14.9497 152.983 14.9506C153.77 14.9321 154.553 15.0535 155.297 15.3091C155.867 15.5246 156.373 15.8831 156.766 16.3501C157.132 16.8137 157.397 17.3499 157.541 17.9232C157.696 18.5944 157.769 19.2817 157.76 19.9705V26.1471H154.672V20.3638C154.73 19.6359 154.594 18.9056 154.279 18.2471C154.107 18.024 153.88 17.8492 153.621 17.7398C153.361 17.6303 153.078 17.5899 152.798 17.6225C152.579 17.6225 152.347 17.6225 152.093 17.6225L151.422 17.7034V26.1471H148.322V15.5752Z" fill="white"/>
<path d="M160.062 20.7571C160.044 19.8874 160.197 19.0227 160.513 18.2124C160.775 17.5331 161.168 16.9121 161.67 16.3848C162.144 15.9032 162.716 15.5286 163.347 15.286C163.964 15.033 164.624 14.9034 165.29 14.9043C165.977 14.8652 166.665 14.9729 167.307 15.2202C167.949 15.4676 168.531 15.8488 169.015 16.3386C169.992 17.5057 170.478 19.0073 170.368 20.5257C170.368 20.7108 170.368 20.9074 170.368 21.1272C170.368 21.347 170.368 21.532 170.368 21.694H163.232C163.258 21.9984 163.352 22.2932 163.506 22.5572C163.66 22.8212 163.87 23.0478 164.122 23.2208C164.758 23.62 165.501 23.8138 166.25 23.776C166.813 23.7781 167.374 23.7278 167.928 23.6256C168.389 23.5486 168.839 23.4166 169.269 23.2323L169.686 25.7539C169.469 25.8559 169.245 25.941 169.015 26.0083C168.737 26.0893 168.425 26.1587 168.09 26.2281C167.754 26.2975 167.384 26.3438 166.991 26.3785C166.607 26.4246 166.221 26.4478 165.834 26.4479C164.954 26.4662 164.079 26.3171 163.255 26.0083C162.575 25.7609 161.959 25.3658 161.45 24.8517C160.964 24.3428 160.6 23.7296 160.386 23.0588C160.152 22.3146 160.043 21.5369 160.062 20.7571V20.7571ZM167.349 19.6004C167.336 19.3381 167.294 19.0781 167.222 18.8254C167.147 18.5807 167.025 18.3529 166.863 18.1545C166.694 17.9602 166.49 17.7994 166.262 17.6803C165.977 17.5454 165.663 17.4819 165.348 17.4952C165.042 17.4876 164.738 17.5469 164.458 17.6687C164.216 17.7767 164.002 17.939 163.833 18.143C163.666 18.3413 163.536 18.5687 163.451 18.8138C163.357 19.0681 163.291 19.3318 163.255 19.6004H167.349Z" fill="white"/>
</svg>
