<svg width="97" height="50" viewBox="0 0 97 50" fill="none" xmlns="http://www.w3.org/2000/svg">
<path d="M65 17C65 21.5087 63.2089 25.8327 60.0208 29.0208C56.8327 32.2089 52.5087 34 48 34C43.4913 34 39.1673 32.2089 35.9792 29.0208C32.7911 25.8327 31 21.5087 31 17V17C31 12.4913 32.7911 8.1673 35.9792 4.97918C39.1673 1.79107 43.4913 0 48 0V0C52.5087 0 56.8327 1.79107 60.0208 4.97918C63.2089 8.1673 65 12.4913 65 17Z" fill="#2D6FF7"/>
<path d="M45.875 8.8228V18.5978C45.8293 19.5533 45.4176 20.4546 44.7252 21.1147C44.0328 21.7747 43.1129 22.143 42.1563 22.143C41.1996 22.143 40.2797 21.7747 39.5873 21.1147C38.8949 20.4546 38.4832 19.5533 38.4375 18.5978V16.8383C38.4648 16.4907 38.6221 16.1661 38.8782 15.9294C39.1342 15.6927 39.4701 15.5612 39.8188 15.5612C40.1674 15.5612 40.5033 15.6927 40.7593 15.9294C41.0154 16.1661 41.1727 16.4907 41.2 16.8383V18.5978C41.2225 18.8359 41.3329 19.057 41.5098 19.2179C41.6866 19.3788 41.9171 19.468 42.1563 19.468C42.3954 19.468 42.6259 19.3788 42.8027 19.2179C42.9796 19.057 43.09 18.8359 43.1125 18.5978V8.8228C43.0975 8.6323 43.1222 8.44076 43.1848 8.26024C43.2474 8.07971 43.3467 7.91409 43.4764 7.77378C43.6062 7.63348 43.7635 7.52152 43.9386 7.44495C44.1136 7.36838 44.3027 7.32886 44.4938 7.32886C44.6848 7.32886 44.8739 7.36838 45.0489 7.44495C45.224 7.52152 45.3813 7.63348 45.5111 7.77378C45.6408 7.91409 45.7401 8.07971 45.8027 8.26024C45.8653 8.44076 45.89 8.6323 45.875 8.8228V8.8228ZM53.848 11.6873C52.8621 11.6873 51.9164 12.0784 51.2184 12.7747C50.5205 13.4711 50.1273 14.4159 50.125 15.4018V25.1768C50.11 25.3673 50.1347 25.5588 50.1973 25.7394C50.2599 25.9199 50.3592 26.0855 50.4889 26.2258C50.6187 26.3661 50.776 26.4781 50.9511 26.5546C51.1261 26.6312 51.3152 26.6707 51.5063 26.6707C51.6973 26.6707 51.8864 26.6312 52.0614 26.5546C52.2365 26.4781 52.3938 26.3661 52.5236 26.2258C52.6533 26.0855 52.7526 25.9199 52.8152 25.7394C52.8778 25.5588 52.9025 25.3673 52.8875 25.1768V15.4018C52.91 15.1637 53.0204 14.9426 53.1973 14.7817C53.3741 14.6207 53.6046 14.5316 53.8438 14.5316C54.0829 14.5316 54.3134 14.6207 54.4902 14.7817C54.6671 14.9426 54.7775 15.1637 54.8 15.4018V17.1613C54.8273 17.5089 54.9846 17.8335 55.2407 18.0702C55.4967 18.3069 55.8326 18.4384 56.1813 18.4384C56.5299 18.4384 56.8658 18.3069 57.1218 18.0702C57.3779 17.8335 57.5352 17.5089 57.5625 17.1613V15.4018C57.5625 14.4166 57.1712 13.4719 56.4745 12.7752C55.7779 12.0786 54.8331 11.6873 53.848 11.6873V11.6873Z" fill="white"/>
<path d="M5.76886 47.1303C4.98436 47.1831 4.19752 47.0704 3.45942 46.7993C2.72133 46.5283 2.04847 46.1051 1.48455 45.5572C0.435426 44.3242 -0.0922899 42.7311 0.0132599 41.1156C-0.00196762 40.2438 0.148765 39.3771 0.457421 38.5617C0.735542 37.8501 1.15409 37.2018 1.68812 36.6555C2.21485 36.1371 2.84566 35.7366 3.53879 35.4803C4.30031 35.2169 5.10197 35.0885 5.90766 35.1009C6.35428 35.0971 6.80031 35.1343 7.24014 35.212C7.59323 35.2749 7.94237 35.3583 8.28577 35.4618C8.54242 35.5386 8.79296 35.6345 9.03529 35.7487C9.23887 35.8504 9.37767 35.9337 9.4702 35.9892L8.72068 38.0805C8.32408 37.88 7.90877 37.7188 7.48073 37.5993C6.9551 37.463 6.4136 37.3977 5.87064 37.405C5.471 37.4059 5.07413 37.4715 4.69547 37.5993C4.31694 37.7365 3.97278 37.9544 3.68685 38.2378C3.36908 38.5642 3.12598 38.9557 2.97434 39.3852C2.77289 39.93 2.67255 40.507 2.67823 41.0878C2.67695 41.5897 2.73598 42.0899 2.85404 42.5776C2.95848 43.01 3.1506 43.4163 3.4185 43.7713C3.69078 44.1165 4.04342 44.3897 4.44562 44.5671C4.9314 44.771 5.45508 44.8688 5.98168 44.854C6.31904 44.8579 6.65621 44.8362 6.9903 44.7892C7.26153 44.7527 7.53035 44.7002 7.79534 44.6319C8.00446 44.578 8.20874 44.5068 8.40607 44.4191L8.8965 44.2062L9.60901 46.2882C9.12404 46.5589 8.60402 46.7613 8.06369 46.8897C7.31196 47.0664 6.54089 47.1472 5.76886 47.1303V47.1303Z" fill="white"/>
<path d="M13.847 35.6284C13.8586 35.8284 13.8256 36.0284 13.7504 36.2141C13.6752 36.3997 13.5596 36.5663 13.4121 36.7018C13.1241 36.957 12.7512 37.0956 12.3664 37.0904C11.9844 37.096 11.6143 36.9572 11.3301 36.7018C11.1814 36.5668 11.0644 36.4005 10.9876 36.2149C10.9108 36.0293 10.8761 35.829 10.8859 35.6284C10.8761 35.4278 10.9108 35.2275 10.9876 35.0419C11.0644 34.8563 11.1814 34.6901 11.3301 34.555C11.6157 34.303 11.9856 34.1675 12.3664 34.1756C12.7512 34.1705 13.1241 34.3091 13.4121 34.5643C13.5584 34.6988 13.6732 34.8638 13.7484 35.0478C13.8235 35.2317 13.8572 35.43 13.847 35.6284V35.6284ZM13.6156 46.9175H11.1357V38.1638H13.6156V46.9175Z" fill="white"/>
<path d="M15.8643 36.0263L18.3442 35.6284V38.2101H21.3331V40.2736H18.3442V43.355C18.3246 43.7886 18.4204 44.2197 18.6218 44.6042C18.7494 44.7727 18.9194 44.9043 19.1145 44.9856C19.3096 45.0669 19.5228 45.0949 19.7322 45.0669C20.0083 45.0644 20.2837 45.0396 20.5558 44.9928C20.8202 44.947 21.0802 44.8789 21.3331 44.7893L21.6754 46.714C21.3519 46.8494 21.0176 46.9577 20.6761 47.0378C20.2336 47.118 19.7836 47.1491 19.3343 47.1304C18.7602 47.149 18.188 47.0547 17.6502 46.8528C17.2218 46.6988 16.8441 46.4299 16.5583 46.0755C16.2815 45.7294 16.0883 45.324 15.9939 44.891C15.886 44.38 15.8332 43.8588 15.8366 43.3365L15.8643 36.0263Z" fill="white"/>
<path d="M26.1632 37.9232C26.7896 37.9054 27.4147 37.9898 28.0139 38.1731C28.4583 38.3149 28.8617 38.5626 29.1891 38.8948C29.4859 39.2141 29.6989 39.602 29.8091 40.0238C29.9355 40.507 29.9977 41.0048 29.9941 41.5043V46.6677C29.6332 46.751 29.1428 46.8435 28.5136 46.9453C27.7508 47.0576 26.9805 47.1102 26.2095 47.1026C25.6936 47.1088 25.1786 47.0591 24.6734 46.9545C24.2484 46.8669 23.8436 46.7006 23.4798 46.4641C23.1461 46.2294 22.8809 45.91 22.7117 45.5388C22.5233 45.1139 22.4316 44.6524 22.4434 44.1878C22.4331 43.7329 22.5416 43.2832 22.758 42.883C22.9556 42.5363 23.2392 42.2462 23.5815 42.041C23.9461 41.8184 24.3471 41.6618 24.766 41.5783C25.2195 41.4845 25.6816 41.438 26.1447 41.4395C26.4314 41.424 26.7186 41.424 27.0053 41.4395C27.2087 41.4582 27.4101 41.4953 27.6068 41.5506V41.3933C27.6168 41.2066 27.5884 41.0199 27.5231 40.8448C27.4578 40.6697 27.3571 40.5099 27.2274 40.3754C26.8491 40.0812 26.3714 39.9452 25.8949 39.996C25.4771 39.9955 25.0597 40.0233 24.6457 40.0793C24.2834 40.1307 23.9269 40.2174 23.5815 40.3384L23.2669 38.3396L23.8036 38.2008C24.0257 38.1546 24.257 38.1083 24.5161 38.0713L25.3212 37.9695C25.5895 37.9417 25.8671 37.9232 26.1632 37.9232ZM26.3576 45.1871C26.6074 45.1871 26.8387 45.1871 27.0608 45.1871C27.2829 45.1871 27.4587 45.1871 27.5883 45.1409V43.2902C27.4417 43.2571 27.2934 43.2323 27.1441 43.2162H26.5889C26.3701 43.2016 26.1507 43.2016 25.9319 43.2162C25.7461 43.2411 25.5651 43.2942 25.3952 43.3735C25.2449 43.4461 25.117 43.558 25.0251 43.6973C24.9354 43.8482 24.8904 44.0215 24.8955 44.197C24.8782 44.3542 24.9055 44.513 24.9742 44.6554C25.0429 44.7977 25.1503 44.9179 25.2842 45.0021C25.6206 45.1534 25.9899 45.2171 26.3576 45.1871V45.1871Z" fill="white"/>
<path d="M32.1409 36.0263L34.6208 35.6284V38.2101H37.6004V40.2736H34.6208V43.355C34.6011 43.7886 34.6969 44.2197 34.8984 44.6042C35.0232 44.7734 35.1914 44.9058 35.3852 44.9872C35.5791 45.0687 35.7914 45.0962 35.9996 45.0669C36.2756 45.0648 36.5511 45.04 36.8231 44.9928C37.088 44.9493 37.3482 44.8811 37.6004 44.7893L37.952 46.714C37.6279 46.848 37.2938 46.9563 36.9527 47.0378C36.5084 47.1304 36.0554 47.1738 35.6017 47.1674C35.0276 47.1853 34.4555 47.091 33.9176 46.8898C33.5016 46.7316 33.1346 46.4667 32.8534 46.1217C32.5766 45.7768 32.3863 45.3707 32.2982 44.9373C32.1858 44.4269 32.133 43.9053 32.1409 43.3827V36.0263Z" fill="white"/>
<path d="M47.5756 38.1641C47.076 39.8482 46.5547 41.4305 46.0118 42.911C45.4659 44.3823 44.8644 45.8166 44.2259 47.2046C44.0197 47.6452 43.7848 48.0718 43.5227 48.4816C43.3109 48.805 43.052 49.0951 42.7546 49.3421C42.4837 49.5704 42.1688 49.7405 41.8293 49.8418C41.4354 49.9548 41.0268 50.0078 40.6171 49.9991C40.2448 50.0049 39.8729 49.9739 39.5067 49.9066C39.2328 49.8461 38.9638 49.7657 38.7017 49.666L39.1366 47.6765C39.3576 47.7625 39.5871 47.8245 39.8213 47.8616C40.0306 47.881 40.2413 47.881 40.4505 47.8616C40.6366 47.875 40.8234 47.8508 40.9999 47.7904C41.1764 47.73 41.3389 47.6346 41.4777 47.51C41.7424 47.2218 41.9497 46.8858 42.0884 46.5199C41.5147 45.4095 40.9502 44.1602 40.3858 42.8185C39.7731 41.3048 39.2388 39.7605 38.7849 38.1918H41.4129C41.5239 38.6175 41.6627 39.1172 41.8108 39.5983C41.9588 40.0795 42.1162 40.607 42.2827 41.1251C42.4493 41.6433 42.6251 42.143 42.7916 42.6334C42.9582 43.1239 43.134 43.5588 43.2913 43.9659C43.4301 43.568 43.5874 43.1239 43.7447 42.6334C43.9021 42.143 44.0501 41.6433 44.1982 41.1251C44.3462 40.607 44.4943 40.098 44.6331 39.5983C44.7719 39.0987 44.9014 38.6175 45.0125 38.1918L47.5756 38.1641Z" fill="white"/>
<path d="M56.8565 42.5037C56.8604 43.1334 56.7572 43.7593 56.5511 44.3544C56.3729 44.9007 56.0794 45.4025 55.6906 45.8257C55.308 46.2272 54.8443 46.5426 54.3303 46.751C53.7665 46.9802 53.1623 47.0934 52.5537 47.0841C51.9562 47.1166 51.3583 47.0285 50.7955 46.825C50.2816 46.6167 49.8179 46.3012 49.4353 45.8997C49.0272 45.4795 48.712 44.9782 48.51 44.4284C48.0781 43.2102 48.0781 41.8805 48.51 40.6623C48.7173 40.1206 49.0321 39.6264 49.4353 39.2095C49.82 38.8105 50.2831 38.4954 50.7955 38.2842C51.341 38.0584 51.9264 37.9451 52.5167 37.951C53.1161 37.9434 53.7109 38.0567 54.2656 38.2842C54.7765 38.4932 55.237 38.8086 55.6165 39.2095C56.0206 39.6258 56.3354 40.1201 56.5419 40.6623C56.75 41.2539 56.8564 41.8765 56.8565 42.5037V42.5037ZM54.3211 42.5037C54.3583 41.87 54.2 41.2401 53.8677 40.6993C53.7228 40.4869 53.526 40.315 53.2961 40.2C53.0661 40.085 52.8105 40.0307 52.5537 40.0423C52.2971 40.0325 52.0422 40.0875 51.8125 40.2024C51.5828 40.3172 51.3858 40.4881 51.2397 40.6993C50.9106 41.2412 50.7556 41.871 50.7955 42.5037C50.7569 43.1534 50.9184 43.7993 51.2582 44.3544C51.4002 44.5709 51.5959 44.7469 51.8262 44.8652C52.0565 44.9836 52.3135 45.0403 52.5722 45.0299C52.8312 45.0422 53.0889 44.9863 53.3195 44.8677C53.5501 44.7492 53.7455 44.5722 53.8862 44.3544C54.2163 43.7962 54.368 43.1505 54.3211 42.5037Z" fill="white"/>
<path d="M58.7722 38.4603C59.3086 38.3172 59.8522 38.203 60.4008 38.1179C61.096 38.0123 61.7982 37.9597 62.5013 37.9606C63.1303 37.9464 63.7568 38.0435 64.352 38.2474C64.8085 38.4198 65.2132 38.7066 65.5271 39.0802C65.8213 39.4494 66.0298 39.8792 66.1379 40.3387C66.2691 40.8745 66.3312 41.4249 66.3229 41.9765V46.9178H63.843V42.2912C63.8893 41.7088 63.7808 41.1246 63.5284 40.5978C63.3909 40.4193 63.2096 40.2795 63.002 40.192C62.7945 40.1044 62.5678 40.0721 62.344 40.0981C62.1682 40.0981 61.9739 40.0981 61.7795 40.0981L61.2428 40.1629V46.9178H58.7629L58.7722 38.4603Z" fill="white"/>
<path d="M72.0783 47.1305C71.4841 47.1403 70.8916 47.0623 70.3202 46.8992C69.9279 46.7572 69.5778 46.5185 69.3023 46.2052C69.0459 45.9488 68.8609 45.6298 68.7656 45.2799C68.6686 44.8675 68.622 44.445 68.6268 44.0214V34.3979L71.1067 34V43.5402C71.1047 43.7421 71.1233 43.9436 71.1622 44.1417C71.1837 44.3035 71.2475 44.4567 71.3473 44.5859C71.4566 44.7188 71.5962 44.8235 71.7544 44.8912C71.9858 44.9782 72.2293 45.0282 72.4762 45.0393L72.0783 47.1305Z" fill="white"/>
<path d="M76.5569 35.6286C76.5666 35.8283 76.5328 36.0278 76.4577 36.2131C76.3826 36.3985 76.268 36.5653 76.122 36.702C75.834 36.9572 75.4612 37.0958 75.0764 37.0906C74.694 37.098 74.3233 36.959 74.04 36.702C73.8913 36.5669 73.7744 36.4007 73.6976 36.2151C73.6208 36.0295 73.5861 35.8292 73.5959 35.6286C73.5861 35.428 73.6208 35.2277 73.6976 35.0421C73.7744 34.8565 73.8913 34.6902 74.04 34.5552C74.3233 34.2982 74.694 34.1591 75.0764 34.1665C75.4612 34.1614 75.834 34.3 76.122 34.5552C76.268 34.6919 76.3826 34.8586 76.4577 35.044C76.5328 35.2294 76.5666 35.4288 76.5569 35.6286V35.6286ZM76.3256 46.9177H73.8457V38.164H76.3256V46.9177Z" fill="white"/>
<path d="M78.6577 38.4601C79.197 38.3163 79.7438 38.202 80.2956 38.1178C80.9877 38.0123 81.6868 37.9597 82.3868 37.9604C83.0158 37.9457 83.6425 38.0428 84.2375 38.2473C84.6941 38.4197 85.0987 38.7065 85.4127 39.0801C85.7061 39.451 85.9174 39.8799 86.0327 40.3386C86.1565 40.8755 86.2155 41.4254 86.2085 41.9764V46.9177H83.7378V42.291C83.7841 41.7087 83.6755 41.1245 83.4232 40.5977C83.2857 40.4192 83.1044 40.2794 82.8968 40.1918C82.6892 40.1043 82.4625 40.0719 82.2388 40.098C82.0629 40.098 81.8779 40.098 81.6743 40.098L81.1376 40.1627V46.9177H78.6577V38.4601Z" fill="white"/>
<path d="M88.0499 42.6057C88.0352 41.91 88.1578 41.2182 88.4107 40.57C88.6201 40.0266 88.9346 39.5297 89.3361 39.1079C89.7155 38.7226 90.173 38.4229 90.6778 38.2288C91.1711 38.0265 91.6992 37.9227 92.2324 37.9235C92.782 37.8922 93.332 37.9784 93.8458 38.1762C94.3595 38.3741 94.8252 38.6791 95.212 39.0709C95.994 40.0046 96.3822 41.2059 96.2946 42.4206C96.2946 42.5687 96.2946 42.726 96.2946 42.9018C96.2946 43.0776 96.2946 43.2257 96.2946 43.3552H90.5853C90.6065 43.5988 90.6814 43.8346 90.8046 44.0458C90.9278 44.257 91.0962 44.4383 91.2978 44.5767C91.8063 44.896 92.4007 45.0511 93.0004 45.0208C93.4504 45.0225 93.8996 44.9823 94.3421 44.9005C94.7112 44.8389 95.0716 44.7333 95.4155 44.5859L95.7487 46.6031C95.5753 46.6848 95.3959 46.7529 95.212 46.8067C94.9899 46.8715 94.74 46.927 94.4717 46.9825C94.2033 47.0381 93.9072 47.0751 93.5926 47.1028C93.2856 47.1398 92.9766 47.1583 92.6673 47.1584C91.9634 47.173 91.2631 47.0537 90.6038 46.8067C90.0601 46.6088 89.5671 46.2927 89.1603 45.8814C88.7711 45.4743 88.4799 44.9837 88.3089 44.4471C88.1219 43.8517 88.0343 43.2296 88.0499 42.6057V42.6057ZM93.8795 41.6804C93.8691 41.4705 93.835 41.2625 93.7777 41.0604C93.7177 40.8646 93.6203 40.6823 93.4908 40.5237C93.3556 40.3682 93.1924 40.2395 93.0097 40.1443C92.7816 40.0364 92.5307 39.9855 92.2786 39.9962C92.0339 39.9902 91.7907 40.0375 91.5661 40.135C91.3726 40.2214 91.2016 40.3512 91.0665 40.5144C90.9326 40.6731 90.8291 40.855 90.7611 41.0511C90.6859 41.2545 90.6332 41.4655 90.6038 41.6804H93.8795Z" fill="white"/>
</svg>
