<svg  xmlns="http://www.w3.org/2000/svg">
  <symbol id="pinterest" viewBox="0 0 16 20">
    <path d="M9.21071 14.0864C8.07673 13.9987 7.60025 13.4364 6.71093 12.8966C6.22215 15.461 5.62481 17.9194 3.85553 19.2036C3.30873 15.3276 4.65715 12.4163 5.28336 9.32618C4.21597 7.52936 5.41171 3.91271 7.66309 4.80391C10.434 5.89965 5.26411 11.485 8.73476 12.1826C12.3581 12.911 13.8373 5.89564 11.5902 3.61378C8.34358 0.319334 2.13999 3.53891 2.90284 8.25504C3.08867 9.408 4.28014 9.75801 3.37879 11.3489C1.30094 10.8888 0.681143 9.24997 0.760824 7.06518C0.889436 3.48891 3.97425 0.984854 7.06842 0.638323C10.9816 0.200348 14.6544 2.07525 15.1613 5.75606C15.7317 9.91041 13.3947 14.4094 9.21071 14.0864Z" />
  </symbol>
  <symbol id="facebook" viewBox="0 0 10 21">
    <path d="M8.77094 10.5873H6.09438V20.393H2.03915V10.5873H0.110474V7.14122H2.03915V4.91119C2.03915 3.31648 2.79667 0.819336 6.13047 0.819336L9.13432 0.831903V4.17694H6.95484C6.59734 4.17694 6.09464 4.35556 6.09464 5.11628V7.14443H9.12523L8.77094 10.5873Z" />
  </symbol>
  <symbol id="instagram" viewBox="0 0 18 18">
    <path d="M12.4704 0.414551H5.52965C2.70895 0.414551 0.414185 2.70932 0.414185 5.53002V12.4707C0.414185 15.2913 2.70895 17.5863 5.52971 17.5863H12.4704C15.291 17.5863 17.586 15.2914 17.586 12.4707V5.53002C17.5859 2.70932 15.2911 0.414551 12.4704 0.414551ZM15.8584 12.4708C15.8584 14.3419 14.3416 15.8588 12.4704 15.8588H5.52971C3.65858 15.8588 2.1417 14.3419 2.1417 12.4708V5.53008C2.1417 3.65894 3.65858 2.14201 5.52971 2.14201H12.4704C14.3416 2.14201 15.8584 3.659 15.8584 5.53008V12.4708Z" />
    <path d="M9.00001 4.55908C6.55114 4.55908 4.55872 6.5515 4.55872 9.00037C4.55872 11.4491 6.55114 13.4415 9.00001 13.4415C11.4489 13.4415 13.4411 11.4492 13.4411 9.00037C13.4411 6.5515 11.4489 4.55908 9.00001 4.55908ZM9.00001 11.714C7.50124 11.714 6.28618 10.4992 6.28618 9.00037C6.28618 7.50154 7.50124 6.28654 9.00001 6.28654C10.4988 6.28654 11.7137 7.50148 11.7137 9.00037C11.7137 10.4991 10.4988 11.714 9.00001 11.714Z" />
  </symbol>
  <symbol id="google" viewBox="0 0 20 13">
    <path d="M0.222365 6.67182C0.169154 9.25266 1.94676 11.7156 4.39203 12.5188C6.69532 13.2926 9.52724 12.7137 11.0599 10.7412C12.1789 9.35909 12.4332 7.51651 12.3121 5.79505C10.3396 5.77741 8.36704 5.78329 6.39745 5.78623C6.39424 6.48893 6.39745 7.18895 6.40039 7.89165C7.58145 7.92427 8.76277 7.9093 9.94383 7.9331C9.64569 8.95479 8.96652 9.90563 7.93574 10.2746C5.94556 11.1517 3.40617 10.0059 2.77994 7.91812C2.02403 5.91886 3.26151 3.5062 5.30463 2.92463C6.57152 2.47889 7.87665 2.98078 8.96064 3.63936C9.50986 3.12544 10.0238 2.57622 10.5286 2.02112C9.29702 0.990606 7.71434 0.358765 6.08728 0.49754C2.89492 0.535509 0.101238 3.48267 0.222365 6.67182Z" />
    <path d="M16.151 4.01318C16.1451 4.60091 16.139 5.19157 16.136 5.77902C15.5454 5.7849 14.9579 5.78785 14.3702 5.79079C14.3702 6.37851 14.3702 6.96302 14.3702 7.55074C14.9579 7.55368 15.5486 7.55663 16.136 7.56278C16.1419 8.1505 16.1419 8.73795 16.1478 9.32861C16.7326 9.32861 17.3203 9.32567 17.9077 9.32861C17.9109 8.73795 17.9136 8.1505 17.9198 7.55983C18.5072 7.55689 19.0979 7.55395 19.6856 7.55101C19.6856 6.96329 19.6856 6.37878 19.6856 5.79106C19.0982 5.78811 18.5075 5.78517 17.9198 5.77929C17.9166 5.19157 17.9109 4.60091 17.9077 4.01345C17.3203 4.01318 16.7355 4.01318 16.151 4.01318Z" />
    <path d="M0.222365 6.67112C0.101238 3.48196 2.89465 0.5348 6.08701 0.496563C7.71408 0.357788 9.29702 0.989629 10.5283 2.02015C10.0232 2.57552 9.50933 3.12446 8.96038 3.63839C7.87638 2.97981 6.57125 2.47792 5.30436 2.92366C3.26098 3.50549 2.0235 5.91815 2.77968 7.91715C3.4059 10.0049 5.9453 11.1507 7.93547 10.2737C8.96599 9.90465 9.64543 8.95382 9.94357 7.93212C8.76251 7.90859 7.58118 7.9233 6.40012 7.89068C6.39718 7.18798 6.39424 6.48795 6.39718 5.78525C8.36677 5.78231 10.3393 5.77643 12.3118 5.79408C12.433 7.5158 12.1789 9.35838 11.0596 10.7402C9.52697 12.7128 6.69532 13.2917 4.39177 12.5178C1.94703 11.7149 0.169155 9.25196 0.222365 6.67112Z" />
    <path d="M16.151 4.01318C16.7358 4.01318 17.3203 4.01318 17.9077 4.01318C17.9109 4.60091 17.9166 5.19157 17.9198 5.77902C18.5072 5.7849 19.0979 5.78785 19.6856 5.79079C19.6856 6.37851 19.6856 6.96302 19.6856 7.55074C19.0982 7.55368 18.5075 7.55663 17.9198 7.55957C17.9139 8.15023 17.9109 8.73768 17.9077 9.32835C17.3203 9.32541 16.7323 9.32835 16.1478 9.32835C16.1422 8.73768 16.1422 8.15023 16.136 7.56251C15.5486 7.55636 14.9579 7.55368 14.3702 7.55048C14.3702 6.96275 14.3702 6.37824 14.3702 5.79052C14.9579 5.78758 15.5456 5.78464 16.136 5.77876C16.139 5.19157 16.1448 4.60091 16.151 4.01318Z" />
  </symbol>
  <symbol id="twitter" viewBox="0 0 19 15">
    <path d="M18.1881 1.77996C17.5453 2.065 16.8538 2.25778 16.1287 2.34388C16.8691 1.90029 17.4373 1.19839 17.7055 0.360672C17.0127 0.771645 16.245 1.06978 15.4287 1.23048C14.7746 0.533939 13.8428 0.0986328 12.8109 0.0986328C10.8312 0.0986328 9.22555 1.70429 9.22555 3.68402C9.22555 3.96505 9.25737 4.23858 9.31887 4.50116C6.33911 4.35169 3.69706 2.92438 1.92856 0.754532C1.62 1.28396 1.44299 1.90029 1.44299 2.55725C1.44299 3.80087 2.07643 4.89876 3.03795 5.54156C2.4505 5.52311 1.89728 5.36188 1.41411 5.09262C1.41384 5.10786 1.41384 5.1231 1.41384 5.13807C1.41384 6.87528 2.65024 8.32425 4.29012 8.65341C3.98958 8.73576 3.67219 8.77935 3.34571 8.77935C3.11415 8.77935 2.88982 8.75715 2.6711 8.71544C3.12726 10.1395 4.45109 11.1762 6.02038 11.2053C4.79308 12.1671 3.24731 12.7401 1.56705 12.7401C1.27828 12.7401 0.992173 12.7233 0.712219 12.6899C2.29809 13.7076 4.18317 14.3009 6.20782 14.3009C12.8026 14.3009 16.4092 8.83764 16.4092 4.09928C16.4092 3.94392 16.4057 3.78911 16.3987 3.63563C17.0998 3.13026 17.7076 2.49896 18.1881 1.77996Z" />
  </symbol>
  <symbol id="vk" viewBox="0 0 21 12">
    <path fill-rule="evenodd" clip-rule="evenodd" d="M10.4334 11.579H11.6107C11.6107 11.579 11.9663 11.5399 12.1479 11.3442C12.315 11.1645 12.3096 10.8271 12.3096 10.8271C12.3096 10.8271 12.2867 9.24733 13.0198 9.0147C13.7426 8.78555 14.6707 10.5415 15.6544 11.2167C16.3983 11.7276 16.9636 11.6156 16.9636 11.6156L19.5939 11.579C19.5939 11.579 20.9699 11.4942 20.3174 10.4123C20.2639 10.3238 19.9375 9.61205 18.3617 8.14943C16.7125 6.61863 16.9333 6.86623 18.92 4.21827C20.13 2.60565 20.6137 1.62112 20.4626 1.19945C20.3185 0.797831 19.4286 0.903985 19.4286 0.903985L16.467 0.922435C16.467 0.922435 16.2475 0.892487 16.0847 0.989816C15.9256 1.08527 15.8231 1.30774 15.8231 1.30774C15.8231 1.30774 15.3544 2.55565 14.7293 3.61692C13.4105 5.8563 12.8832 5.97449 12.6677 5.83544C12.1663 5.51137 12.2915 4.53353 12.2915 3.83885C12.2915 1.66872 12.6206 0.763873 11.6505 0.52964C11.3286 0.45183 11.0917 0.400491 10.2684 0.392202C9.21168 0.381239 8.31726 0.395411 7.81083 0.643548C7.47392 0.808527 7.21401 1.17619 7.37231 1.19731C7.56804 1.22351 8.01137 1.31683 8.2464 1.6369C8.54989 2.04975 8.53919 2.97705 8.53919 2.97705C8.53919 2.97705 8.71353 5.53169 8.13196 5.84908C7.73275 6.06674 7.18513 5.62234 6.00942 3.59071C5.407 2.55003 4.95217 1.39972 4.95217 1.39972C4.95217 1.39972 4.86446 1.18474 4.70804 1.06977C4.5182 0.930456 4.25294 0.88607 4.25294 0.88607L1.43867 0.904519C1.43867 0.904519 1.0162 0.916285 0.861113 1.09998C0.72314 1.26336 0.850149 1.60134 0.850149 1.60134C0.850149 1.60134 3.05344 6.75607 5.54818 9.35375C7.83569 11.7354 10.4334 11.579 10.4334 11.579Z" />
  </symbol>
  <symbol id="linkedin" viewBox="0 0 17 17">
    <path d="M16.9623 10.2069V16.391H13.3769V10.6213C13.3769 9.17259 12.8592 8.18325 11.5611 8.18325C10.5704 8.18325 9.98187 8.84932 9.72197 9.49426C9.62758 9.72475 9.60325 10.0448 9.60325 10.3681V16.3908H6.01756C6.01756 16.3908 6.06569 6.61876 6.01756 5.60723H9.60351V7.13536C9.59629 7.14739 9.58613 7.15915 9.57971 7.17065H9.60351V7.13536C10.08 6.40217 10.9298 5.35401 12.8349 5.35401C15.1938 5.35401 16.9623 6.89524 16.9623 10.2069ZM2.26662 0.40918C1.04011 0.40918 0.237671 1.21429 0.237671 2.27208C0.237671 3.30741 1.01684 4.13578 2.21956 4.13578H2.24282C3.4934 4.13578 4.27097 3.30741 4.27097 2.27208C4.24717 1.21429 3.4934 0.40918 2.26662 0.40918ZM0.45078 16.391H4.03513V5.60723H0.45078V16.391Z" />
  </symbol>
  <symbol id="label" viewBox="0 0 14 14">
    <path d="M7.29851 0L0.479255 6.83238C-0.158784 7.47152 -0.158784 8.51145 0.479309 9.15061L4.84091 13.5186C5.15058 13.8287 5.56245 13.9997 6.00069 14C6.0011 14 6.00146 14 6.00187 14C6.43967 14 6.85136 13.8296 7.16124 13.5202L13.9997 6.68894V0H7.29851ZM12.906 6.23555L6.38832 12.7463C6.28501 12.8495 6.14783 12.9062 6.00189 12.9062C6.00176 12.9062 6.00162 12.9062 6.00148 12.9062C5.85539 12.9061 5.71809 12.8492 5.61487 12.7458L1.2533 8.37782C1.04062 8.16479 1.04062 7.81815 1.25333 7.60509L7.75219 1.09375H12.906V6.23555Z" />
    <path d="M10.2808 4.59375C10.764 4.59375 11.1558 4.202 11.1558 3.71875C11.1558 3.2355 10.764 2.84375 10.2808 2.84375C9.79751 2.84375 9.40576 3.2355 9.40576 3.71875C9.40576 4.202 9.79751 4.59375 10.2808 4.59375Z" />
  </symbol>
  <symbol id="quote" viewBox="0 0 20 20">
    <path d="M18.6573 9.02074C17.8191 8.16719 16.7079 7.67305 15.5176 7.62184C15.512 7.54746 15.5078 7.44496 15.5078 7.30469C15.5078 6.73 15.9448 4.97402 16.2204 4.00219L16.5023 3.00781H13.081L12.8518 3.37707C12.7609 3.52355 10.625 7.02547 10.625 12.3047C10.625 14.8894 12.7278 16.9922 15.3125 16.9922C17.8972 16.9922 20 14.8894 20 12.3047C20 11.0687 19.5231 9.90246 18.6573 9.02074ZM15.3125 15.4297C13.5894 15.4297 12.1875 14.0278 12.1875 12.3047C12.1875 8.425 13.4702 5.55336 13.977 4.57031H14.4508C14.2263 5.4525 13.9453 6.68129 13.9453 7.30469C13.9453 7.79938 13.982 8.1968 14.1614 8.52852C14.3211 8.82398 14.6552 9.1759 15.3404 9.17965L15.3745 9.18051C17.0634 9.21324 18.4375 10.6147 18.4375 12.3047C18.4375 14.0278 17.0356 15.4297 15.3125 15.4297Z" />
    <path d="M8.03227 9.02074C7.19406 8.16719 6.08289 7.67305 4.89262 7.62184C4.88699 7.54746 4.88281 7.44496 4.88281 7.30469C4.88281 6.73 5.31984 4.97402 5.59535 4.00219L5.87727 3.00781H2.45602L2.22684 3.37707C2.13594 3.52355 0 7.02547 0 12.3047C0 14.8894 2.10281 16.9922 4.6875 16.9922C7.27219 16.9922 9.375 14.8894 9.375 12.3047C9.375 11.0687 8.89813 9.90246 8.03227 9.02074ZM4.6875 15.4297C2.96438 15.4297 1.5625 14.0278 1.5625 12.3047C1.5625 8.425 2.84516 5.55336 3.35203 4.57031H3.82582C3.60133 5.4525 3.32031 6.68129 3.32031 7.30469C3.32031 7.79938 3.35703 8.1968 3.53637 8.52852C3.69609 8.82398 4.03016 9.1759 4.71539 9.17965L4.74949 9.18051C6.43844 9.21324 7.8125 10.6147 7.8125 12.3047C7.8125 14.0278 6.41062 15.4297 4.6875 15.4297Z" />
  </symbol>
  <symbol id="dice" viewBox="0 0 20 20">
    <path d="M4.6875 3.90625C4.6875 4.33777 4.33777 4.6875 3.90625 4.6875C3.47473 4.6875 3.125 4.33777 3.125 3.90625C3.125 3.47473 3.47473 3.125 3.90625 3.125C4.33777 3.125 4.6875 3.47473 4.6875 3.90625ZM9.21875 8.4375C8.78723 8.4375 8.4375 8.78723 8.4375 9.21875C8.4375 9.65027 8.78723 10 9.21875 10C9.65027 10 10 9.65027 10 9.21875C10 8.78723 9.65027 8.4375 9.21875 8.4375ZM9.21875 3.125C8.78723 3.125 8.4375 3.47473 8.4375 3.90625C8.4375 4.33777 8.78723 4.6875 9.21875 4.6875C9.65027 4.6875 10 4.33777 10 3.90625C10 3.47473 9.65027 3.125 9.21875 3.125ZM3.90625 8.4375C3.47473 8.4375 3.125 8.78723 3.125 9.21875C3.125 9.65027 3.47473 10 3.90625 10C4.33777 10 4.6875 9.65027 4.6875 9.21875C4.6875 8.78723 4.33777 8.4375 3.90625 8.4375ZM18.4375 12.9688V10C18.4375 9.13849 17.7365 8.4375 16.875 8.4375H13.125V10C13.125 11.7232 11.7232 13.125 10 13.125H8.4375V16.875C8.4375 17.7365 9.13849 18.4375 10 18.4375H16.875C17.7365 18.4375 18.4375 17.7365 18.4375 16.875C18.4375 16.4435 18.7872 16.0938 19.2188 16.0938C19.6503 16.0938 20 16.4435 20 16.875C20 18.5982 18.5982 20 16.875 20H10C8.27682 20 6.875 18.5982 6.875 16.875V13.125H3.125C1.40182 13.125 0 11.7232 0 10V3.125C0 1.40182 1.40182 0 3.125 0H10C11.7232 0 13.125 1.40182 13.125 3.125V6.875H16.875C18.5982 6.875 20 8.27682 20 10V12.9688C20 13.4003 19.6503 13.75 19.2188 13.75C18.7872 13.75 18.4375 13.4003 18.4375 12.9688ZM11.5625 3.125C11.5625 2.26349 10.8615 1.5625 10 1.5625H3.125C2.26349 1.5625 1.5625 2.26349 1.5625 3.125V10C1.5625 10.8615 2.26349 11.5625 3.125 11.5625H10C10.8615 11.5625 11.5625 10.8615 11.5625 10V3.125ZM12.7344 13.4375C12.7344 13.869 13.0841 14.2188 13.5156 14.2188C13.9471 14.2188 14.2969 13.869 14.2969 13.4375C14.2969 13.006 13.9471 12.6562 13.5156 12.6562C13.0841 12.6562 12.7344 13.006 12.7344 13.4375ZM16.0938 10C15.6622 10 15.3125 10.3497 15.3125 10.7812C15.3125 11.2128 15.6622 11.5625 16.0938 11.5625C16.5253 11.5625 16.875 11.2128 16.875 10.7812C16.875 10.3497 16.5253 10 16.0938 10ZM10 16.0938C10 16.5253 10.3497 16.875 10.7812 16.875C11.2128 16.875 11.5625 16.5253 11.5625 16.0938C11.5625 15.6622 11.2128 15.3125 10.7812 15.3125C10.3497 15.3125 10 15.6622 10 16.0938ZM16.0938 15.3125C15.6622 15.3125 15.3125 15.6622 15.3125 16.0938C15.3125 16.5253 15.6622 16.875 16.0938 16.875C16.5253 16.875 16.875 16.5253 16.875 16.0938C16.875 15.6622 16.5253 15.3125 16.0938 15.3125Z" />
  </symbol>
  <symbol id="vision" viewBox="0 0 20 20">
    <path d="M19.3768 10.8949C19.4833 10.7558 19.6811 10.4645 19.7034 10.4317L20 9.99374L19.7032 9.55582C19.6811 9.52316 19.4833 9.23187 19.3768 9.09271C18.8791 8.4436 17.7138 6.92352 16.107 5.59372C14.0952 3.92838 12.0404 3.08411 10 3.08411C7.95959 3.08411 5.90485 3.92838 3.89297 5.59372C2.28622 6.92337 1.12091 8.4436 0.623169 9.09286C0.516663 9.23187 0.318909 9.52301 0.296783 9.55582L0 9.99374L0.296631 10.4317C0.318909 10.4645 0.516663 10.7559 0.623169 10.8949C1.12091 11.544 2.28622 13.0643 3.89297 14.3941C5.90485 16.0593 7.95959 16.9035 10 16.9035C12.0404 16.9035 14.0952 16.0593 16.107 14.3939C17.7136 13.0643 18.8791 11.544 19.3768 10.8949ZM1.90018 9.9939C4.63303 6.44501 7.35809 4.64554 10 4.64554C12.6421 4.64554 15.367 6.44501 18.0998 9.9939C15.367 13.5426 12.6419 15.3421 10 15.3421C7.35794 15.3421 4.63303 13.5426 1.90018 9.9939ZM11.5225 9.9939C11.5225 10.8347 10.8409 11.5163 10 11.5163C9.15909 11.5163 8.47748 10.8347 8.47748 9.9939C8.47748 9.15298 9.15909 8.47137 10 8.47137C10.8409 8.47137 11.5225 9.15298 11.5225 9.9939ZM10 5.54352C7.54608 5.54352 5.54962 7.53983 5.54962 9.9939C5.54962 12.4478 7.54608 14.4443 10 14.4443C12.4539 14.4443 14.4504 12.4478 14.4504 9.9939C14.4504 7.53983 12.4539 5.54352 10 5.54352ZM10 12.8827C8.40714 12.8827 7.11121 11.5868 7.11121 9.9939C7.11121 8.40088 8.40714 7.10495 10 7.10495C11.5929 7.10495 12.8888 8.40088 12.8888 9.9939C12.8888 11.5868 11.5929 12.8827 10 12.8827ZM1.56769 4.6846H0.00610352V0H4.6907V1.56158H1.56769V4.6846ZM1.56769 18.4261H4.6907V19.9876H0.00610352V15.303H1.56769V18.4261ZM18.4323 1.56158H15.3093V0H19.9939V4.6846H18.4323V1.56158ZM18.4323 15.303H19.9939V19.9876H15.3093V18.4261H18.4323V15.303Z" />
  </symbol>
  <symbol id="king" viewBox="0 0 20 20">
    <path d="M18.3547 19.3568C18.3547 16.874 17.2861 14.5567 15.4111 12.9472C15.3392 12.1062 15.0506 11.4942 14.5341 11.0822C14.2226 10.8338 13.8537 10.6824 13.4301 10.6056C13.9949 9.86694 14.3311 8.94424 14.3311 7.94459C14.3311 7.51609 14.2686 7.09401 14.1483 6.69027V0.618896L11.7864 2.26204L9.94187 0.643435L8.09737 2.26204L5.73551 0.618896V6.68959C5.61511 7.09309 5.55251 7.5154 5.55251 7.94459C5.55251 8.94424 5.88882 9.86694 6.45377 10.6056C6.03008 10.6824 5.66109 10.8338 5.34966 11.0822C4.8331 11.4942 4.5446 12.1062 4.47259 12.9472C2.5976 14.5567 1.52904 16.874 1.52904 19.3568H2.99216C2.99216 17.623 3.6227 15.9871 4.75272 14.7183C5.04076 15.4526 5.53278 16.1996 6.20598 16.9106C7.1859 17.9455 8.48735 18.8294 9.68743 19.2745L9.94187 19.369L10.1965 19.2744C11.4447 18.8109 12.7352 17.8893 13.7372 16.7459C14.3367 16.0618 14.7877 15.351 15.0727 14.6541C16.2391 15.9316 16.8916 17.5935 16.8916 19.3568H18.3547ZM10.4947 10.8176C10.3156 10.8521 10.1308 10.8707 9.94187 10.8707C9.75279 10.8707 9.56818 10.8521 9.38896 10.8176C9.36694 10.8132 9.34515 10.8088 9.32337 10.8043C8.00599 10.5196 7.01563 9.34579 7.01563 7.94459C7.01563 7.56436 7.0897 7.19274 7.22948 6.84725H12.654C12.7939 7.19296 12.8681 7.56494 12.8681 7.94459C12.8681 9.34579 11.8778 10.5196 10.5606 10.8043C10.5386 10.8088 10.5167 10.8132 10.4947 10.8176ZM7.19863 3.41901L8.20183 4.11697L9.94187 2.58987L11.6819 4.11697L12.6852 3.41901V5.38413H7.19863V3.41901ZM12.6369 15.7817C11.8717 16.655 10.8809 17.3942 9.94084 17.8008C8.03488 16.9877 5.95922 14.9489 5.91852 13.3049C5.92918 12.7623 6.04453 12.3993 6.26194 12.2259C6.72851 11.8539 7.92102 12.0146 8.98557 12.2287C9.0382 12.2404 9.09129 12.2513 9.14483 12.2611C9.16662 12.2657 9.18852 12.2703 9.21031 12.2749V15.1138H10.6734V12.2749C10.6953 12.2703 10.7171 12.2656 10.7391 12.261C10.7925 12.2513 10.8454 12.2404 10.8981 12.2287C11.9627 12.0148 13.1553 11.8539 13.622 12.2259C13.8185 12.3827 13.9314 12.6949 13.959 13.1543C13.9001 13.9349 13.4257 14.8816 12.6369 15.7817Z" />
  </symbol>
  <symbol id="books" viewBox="0 0 20 20">
    <path d="M8.61328 13.75H17.6367C18.9291 13.75 19.9805 12.6986 19.9805 11.4062V2.34375C19.9805 1.05141 18.9291 0 17.6367 0H8.61328C7.32094 0 6.26953 1.05141 6.26953 2.34375V3.125H2.36328C1.07094 3.125 0.0195312 4.17641 0.0195312 5.46875V17.6562C0.0195312 18.9486 1.07094 20 2.36328 20H11.3867C12.6791 20 13.7305 18.9486 13.7305 17.6562V17.6543C13.0771 18.1458 12.2654 18.4375 11.3867 18.4375H2.36328C1.9325 18.4375 1.58203 18.087 1.58203 17.6562C1.58203 17.2255 1.9325 16.875 2.36328 16.875H17.6367C18.9291 16.875 19.9805 15.8236 19.9805 14.5312V14.5293C19.3271 15.0208 18.5154 15.3125 17.6367 15.3125H8.61328C8.1825 15.3125 7.83203 14.962 7.83203 14.5312C7.83203 14.1005 8.1825 13.75 8.61328 13.75ZM2.36328 15.3125C2.08949 15.3125 1.82648 15.3597 1.58203 15.4464V5.46875C1.58203 5.03797 1.9325 4.6875 2.36328 4.6875H6.26953V6.99219H3.14453V8.55469H6.26953V14.5312C6.26953 14.805 6.31672 15.068 6.4034 15.3125H2.36328ZM7.83203 2.34375C7.83203 1.91297 8.1825 1.5625 8.61328 1.5625H17.6367C18.0675 1.5625 18.418 1.91297 18.418 2.34375V11.4062C18.418 11.837 18.0675 12.1875 17.6367 12.1875H8.61328C8.33949 12.1875 8.07648 12.2347 7.83203 12.3214V2.34375Z" />
    <path d="M16.8945 3.86719H9.43359V5.42969H16.8945V3.86719Z" />
  </symbol>
  <symbol id="camera" viewBox="0 0 20 20">
    <path d="M14.435 9.87595V9.09012C14.435 8.35007 14.0894 7.68951 13.5515 7.26028C14.4267 6.50146 14.9811 5.38208 14.9811 4.13544C14.9811 1.85516 13.1259 0 10.8456 0C9.46609 0 8.24219 0.679321 7.49054 1.72073C6.73889 0.679321 5.51514 0 4.13544 0C1.85516 0 0 1.85516 0 4.13544C0 5.4277 0.596008 6.58325 1.5274 7.34222C1.04553 7.7713 0.741272 8.39569 0.741272 9.09012V17.634C0.741272 18.9247 1.79138 19.9748 3.08212 19.9748H12.0941C13.3849 19.9748 14.435 18.9247 14.435 17.634V16.8008L19.9748 20V6.63788L14.435 9.87595ZM10.8456 1.56052C12.2655 1.56052 13.4206 2.71561 13.4206 4.13544C13.4206 5.55527 12.2655 6.71036 10.8456 6.71036C9.42596 6.71036 8.27087 5.55527 8.27087 4.13544C8.27087 2.71561 9.42596 1.56052 10.8456 1.56052ZM7.64359 6.74927H7.33749C7.39044 6.68457 7.44156 6.61804 7.49054 6.55014C7.53967 6.61804 7.59064 6.68457 7.64359 6.74927ZM4.13544 1.56052C5.55527 1.56052 6.71036 2.71561 6.71036 4.13544C6.71036 5.55527 5.55527 6.71036 4.13544 6.71036C2.71561 6.71036 1.56052 5.55527 1.56052 4.13544C1.56052 2.71561 2.71561 1.56052 4.13544 1.56052ZM18.4143 17.2968L12.8745 14.0976V17.634C12.8745 18.0643 12.5244 18.4143 12.0941 18.4143H3.08212C2.65182 18.4143 2.30179 18.0643 2.30179 17.634V9.09012C2.30179 8.65982 2.65182 8.30978 3.08212 8.30978H12.0941C12.5244 8.30978 12.8745 8.65982 12.8745 9.09012V12.5957L18.4143 9.3576V17.2968ZM5.03265 10.2605C5.03265 10.6915 4.68338 11.0408 4.25247 11.0408C3.82156 11.0408 3.47214 10.6915 3.47214 10.2605C3.47214 9.82956 3.82156 9.48029 4.25247 9.48029C4.68338 9.48029 5.03265 9.82956 5.03265 10.2605Z" />
  </symbol>
  <symbol id="reet" viewBox="0 0 20 20">
    <path d="M8.92578 7.30469C10.2182 7.30469 11.2695 6.25336 11.2695 4.96094C11.2695 3.66852 10.2182 2.61719 8.92578 2.61719C7.63336 2.61719 6.58203 3.66852 6.58203 4.96094C6.58203 6.25336 7.63336 7.30469 8.92578 7.30469ZM8.92578 4.17969C9.35654 4.17969 9.70703 4.53018 9.70703 4.96094C9.70703 5.39169 9.35654 5.74219 8.92578 5.74219C8.49503 5.74219 8.14453 5.39169 8.14453 4.96094C8.14453 4.53018 8.49503 4.17969 8.92578 4.17969ZM7.30469 8.92578C7.30469 7.63336 6.25336 6.58203 4.96094 6.58203C3.66852 6.58203 2.61719 7.63336 2.61719 8.92578C2.61719 10.2182 3.66852 11.2695 4.96094 11.2695C6.25336 11.2695 7.30469 10.2182 7.30469 8.92578ZM4.96094 9.70703C4.53018 9.70703 4.17969 9.35654 4.17969 8.92578C4.17969 8.49503 4.53018 8.14453 4.96094 8.14453C5.39169 8.14453 5.74219 8.49503 5.74219 8.92578C5.74219 9.35654 5.39169 9.70703 4.96094 9.70703ZM8.92578 10.5469C7.63336 10.5469 6.58203 11.5982 6.58203 12.8906C6.58203 14.183 7.63336 15.2344 8.92578 15.2344C10.2182 15.2344 11.2695 14.183 11.2695 12.8906C11.2695 11.5982 10.2182 10.5469 8.92578 10.5469ZM8.92578 13.6719C8.49503 13.6719 8.14453 13.3214 8.14453 12.8906C8.14453 12.4599 8.49503 12.1094 8.92578 12.1094C9.35654 12.1094 9.70703 12.4599 9.70703 12.8906C9.70703 13.3214 9.35654 13.6719 8.92578 13.6719ZM10.5469 8.92578C10.5469 10.2182 11.5982 11.2695 12.8906 11.2695C14.183 11.2695 15.2344 10.2182 15.2344 8.92578C15.2344 7.63336 14.183 6.58203 12.8906 6.58203C11.5982 6.58203 10.5469 7.63336 10.5469 8.92578ZM13.6719 8.92578C13.6719 9.35654 13.3214 9.70703 12.8906 9.70703C12.4599 9.70703 12.1094 9.35654 12.1094 8.92578C12.1094 8.49503 12.4599 8.14453 12.8906 8.14453C13.3214 8.14453 13.6719 8.49503 13.6719 8.92578ZM8.90625 8.125C9.33777 8.125 9.6875 8.47473 9.6875 8.90625C9.6875 9.33777 9.33777 9.6875 8.90625 9.6875C8.47473 9.6875 8.125 9.33777 8.125 8.90625C8.125 8.47473 8.47473 8.125 8.90625 8.125ZM17.8516 16.2891V8.30078H17.8297C17.682 6.15204 16.7749 4.15192 15.2373 2.61429C13.5513 0.928497 11.31 0 8.92578 0C6.5416 0 4.30023 0.928497 2.61429 2.61429C0.928497 4.30023 0 6.5416 0 8.92578C0 11.31 0.928497 13.5513 2.61429 15.2373C4.30023 16.9231 6.5416 17.8516 8.92578 17.8516C11.31 17.8516 13.5513 16.9231 15.2373 15.2373C15.6299 14.8447 15.9808 14.4217 16.2891 13.974V16.2891C16.2891 18.3353 17.9538 20 20 20V18.4375C18.8153 18.4375 17.8516 17.4738 17.8516 16.2891ZM8.92578 16.2891C4.86572 16.2891 1.5625 12.9858 1.5625 8.92578C1.5625 4.86572 4.86572 1.5625 8.92578 1.5625C12.9858 1.5625 16.2891 4.86572 16.2891 8.92578C16.2891 12.9858 12.9858 16.2891 8.92578 16.2891Z" />
  </symbol>
  <symbol id="picture" viewBox="0 0 20 20">
    <path d="M17.6541 1.39844H2.34586C1.05234 1.39844 0 2.45082 0 3.74434V16.2556C0 17.5491 1.05234 18.6015 2.34586 18.6015H17.6541C18.9477 18.6015 20 17.5491 20 16.2556V3.7443C20 2.45082 18.9477 1.39844 17.6541 1.39844ZM18.4361 16.2556C18.4361 16.6868 18.0853 17.0376 17.6541 17.0376H2.34586C1.91469 17.0376 1.56391 16.6868 1.56391 16.2556V12.4314L4.89719 7.55969L6.46238 9.51621L2.50855 15.1998L3.79238 16.093L8.6332 9.13422L13.7503 15.7865H18.4361V16.2556ZM18.4361 14.2225H14.5204L8.5698 6.48676L7.39391 8.17711L4.79902 4.93352L1.56391 9.66184V3.74434C1.56391 3.31316 1.91469 2.96238 2.34586 2.96238H17.6541C18.0853 2.96238 18.4361 3.31316 18.4361 3.74434V14.2225Z" />
    <path d="M14.7609 4.21362C13.4674 4.21362 12.415 5.26597 12.415 6.55948C12.415 7.853 13.4674 8.90534 14.7609 8.90534C16.0544 8.90534 17.1068 7.853 17.1068 6.55948C17.1068 5.26597 16.0544 4.21362 14.7609 4.21362ZM14.7609 7.34147C14.3297 7.34147 13.9789 6.99069 13.9789 6.55952C13.9789 6.12835 14.3297 5.77757 14.7609 5.77757C15.1921 5.77757 15.5429 6.12835 15.5429 6.55952C15.5429 6.99069 15.1921 7.34147 14.7609 7.34147Z" />
  </symbol>
  <symbol id="video" viewBox="0 0 20 20">
    <path d="M17.6562 0H2.34375C1.05133 0 0 1.05133 0 2.34375V17.6562C0 18.9487 1.05133 20 2.34375 20H17.6562C18.9487 20 20 18.9487 20 17.6562V2.34375C20 1.05133 18.9487 0 17.6562 0ZM10.2065 4.6875L7.08145 1.5625H9.52011L12.6451 4.6875H10.2065ZM14.8549 4.6875L11.7299 1.5625H14.1685L17.2935 4.6875H14.8549ZM18.4375 2.34375V3.62167L16.3783 1.5625H17.6562C18.087 1.5625 18.4375 1.91299 18.4375 2.34375ZM4.87167 1.5625L7.99667 4.6875H5.40176L2.27997 1.5657C2.30103 1.56403 2.32224 1.5625 2.34375 1.5625H4.87167ZM1.5625 3.05801L3.19199 4.6875H1.5625V3.05801ZM17.6562 18.4375H2.34375C1.91299 18.4375 1.5625 18.087 1.5625 17.6562V6.25H18.4375V17.6562C18.4375 18.087 18.087 18.4375 17.6562 18.4375ZM7.46094 16.244L13.631 12.4359L7.46094 8.59299V16.244ZM9.02344 11.407L10.6659 12.4298L9.02344 13.4435V11.407Z" />
  </symbol>
  <symbol id="bookmark" viewBox="0 0 16 16">
    <path d="M0.5 20V2.34039C0.5 1.04996 1.55133 0 2.84375 0H13.1559C14.4482 0 15.4995 1.04996 15.4995 2.34039V19.9754L8.00076 15.3291L0.5 20ZM2.84375 1.5625C2.41284 1.5625 2.0625 1.91147 2.0625 2.34039V17.1864L7.99878 13.4898L13.937 17.1692V2.34039C13.937 1.91147 13.5867 1.5625 13.1559 1.5625H2.84375Z" />
  </symbol>
  <symbol id="quote-open" viewBox="0 0 20 14">
    <path d="M15.4844 13.4221C12.9308 13.4221 10.9146 11.3518 10.9146 8.79824C10.9146 6.24472 13.0118 4.17436 15.5653 4.17436C15.5909 4.17436 15.6294 4.17783 15.6549 4.17826C14.6453 3.37428 13.3772 2.88981 11.9892 2.88981C11.3506 2.88981 10.8367 2.37201 10.8367 1.73384C10.8367 1.09568 11.2475 0.577872 11.8861 0.577872C16.4187 0.578305 20 4.26572 20 8.79824C20 8.79911 20 8.79997 20 8.80127C20 11.3535 18.037 13.4221 15.4844 13.4221Z" />
    <path d="M4.65418 13.4221C2.10066 13.4221 0.080961 11.3518 0.0809607 8.79824C0.0809605 6.24472 2.17642 4.17436 4.73038 4.17436C4.75592 4.17436 4.79359 4.17783 4.81914 4.17826C3.8095 3.37428 2.54097 2.88981 1.15294 2.88981C0.51434 2.88981 -9.66032e-07 2.37201 -1.02182e-06 1.73384C-1.07761e-06 1.09568 0.41736 0.577872 1.05596 0.577872C5.58848 0.578305 9.17632 4.26572 9.17632 8.79824C9.17632 8.79911 9.17632 8.79997 9.17632 8.80127C9.17632 11.3535 7.20684 13.4221 4.65418 13.4221Z" />
  </symbol>
  <symbol id="quote-close" viewBox="0 0 20 14">
    <path d="M15.4844 0.577881C12.9308 0.577881 10.9146 2.64824 10.9146 5.20176C10.9146 7.75528 13.0118 9.82563 15.5653 9.82563C15.5909 9.82563 15.6294 9.82217 15.6549 9.82174C14.6453 10.6257 13.3772 11.1102 11.9892 11.1102C11.3506 11.1102 10.8367 11.628 10.8367 12.2662C10.8367 12.9043 11.2475 13.4221 11.8861 13.4221C16.4187 13.4217 20 9.73428 20 5.20176C20 5.20089 20 5.20003 20 5.19873C20 2.6465 18.037 0.577881 15.4844 0.577881Z" />
    <path d="M4.65418 0.577881C2.10066 0.577881 0.0809611 2.64824 0.0809611 5.20176C0.0809611 7.75528 2.17643 9.82563 4.73038 9.82563C4.75593 9.82563 4.79359 9.82217 4.81914 9.82174C3.8095 10.6257 2.54097 11.1102 1.15294 11.1102C0.514341 11.1102 0 11.628 0 12.2662C0 12.9043 0.417361 13.4221 1.05596 13.4221C5.58848 13.4217 9.17632 9.73428 9.17632 5.20176C9.17632 5.20089 9.17632 5.20003 9.17632 5.19873C9.17632 2.6465 7.20684 0.577881 4.65418 0.577881Z" />
  </symbol>
  <symbol id="heart" viewBox="0 0 30 26">
    <path d="M27.6369 2.83141C26.163 1.33886 24.1306 0.516846 21.9141 0.516846C18.812 0.516846 16.4215 2.01011 15 4.83585C13.5785 2.01011 11.1879 0.516846 8.08594 0.516846C5.86939 0.516846 3.83701 1.33886 2.36309 2.83147C0.817149 4.39704 0 6.5401 0 9.02899C0 12.0144 1.89703 15.2989 5.63836 18.7911C9.03059 21.9575 12.7483 24.1796 13.4592 24.5929C13.7554 24.7652 14.4146 25.1453 14.4146 25.1453L15.0002 25.483L15.5857 25.1451C15.5857 25.1451 16.2444 24.765 16.5404 24.5929C17.2513 24.1795 20.9692 21.9572 24.3613 18.7911C28.1029 15.2989 30 12.0144 30 9.02899C30 6.5401 29.1829 4.39704 27.6369 2.83141ZM22.7621 17.0777C19.5536 20.0724 16.0351 22.1756 15.3623 22.5668C15.2675 22.6219 15.1354 22.6984 14.9998 22.7768C14.8642 22.6984 14.7319 22.6219 14.6372 22.5668C13.9645 22.1756 10.4462 20.0726 7.23762 17.0777C4.03606 14.0893 2.34375 11.3061 2.34375 9.02899C2.34375 5.39712 4.70502 2.86059 8.08594 2.86059C10.2853 2.86059 11.8537 3.83472 12.8805 5.83868C13.7046 7.44655 13.8295 9.11354 13.8307 9.13018L13.8757 9.12713H16.1694C16.1705 9.11108 16.2955 7.47954 17.0905 5.89575C18.1012 3.88177 19.7242 2.86059 21.9141 2.86059C25.295 2.86059 27.6562 5.39712 27.6562 9.02899C27.6562 11.3061 25.9639 14.0893 22.7621 17.0777Z" />
  </symbol>
  <symbol id="search" viewBox="0 0 26 26">
    <path d="M15.3389 0C9.46034 0 4.67777 4.78258 4.67777 10.6611C4.67777 13.2356 5.59508 15.5997 7.11994 17.4442L0 24.5641L1.43589 26L8.55583 18.8801C10.4003 20.4049 12.7644 21.3222 15.3389 21.3222C21.2174 21.3222 26 16.5397 26 10.6611C26 4.78258 21.2175 0 15.3389 0ZM15.3389 19.2915C10.5801 19.2915 6.70846 15.4199 6.70846 10.6611C6.70846 5.9023 10.5801 2.03069 15.3389 2.03069C20.0977 2.03069 23.9693 5.9023 23.9693 10.6611C23.9693 15.4199 20.0977 19.2915 15.3389 19.2915Z"/>
  </symbol>
</svg>
